<mxfile host="app.diagrams.net" modified="2022-12-22T12:18:00.254Z" agent="5.0 (Windows NT 10.0; Win64; x64) AppleWebKit/537.36 (KHTML, like Gecko) Chrome/108.0.0.0 Safari/537.36 Edg/108.0.1462.54" version="20.7.4" etag="Ij7QTqWbYkmPoDSfVpU6" type="github">
  <diagram id="ELytuPKMUxIxSct0iijC" name="Page-1">
    <mxGraphModel dx="1002" dy="573" grid="1" gridSize="10" guides="1" tooltips="1" connect="1" arrows="1" fold="1" page="1" pageScale="1" pageWidth="850" pageHeight="1100" math="0" shadow="0">
      <root>
        <mxCell id="0" />
        <mxCell id="1" parent="0" />
        <mxCell id="vmFFef-7g0_wXmtQKAH0-1" value="" style="edgeStyle=orthogonalEdgeStyle;rounded=0;orthogonalLoop=1;jettySize=auto;html=1;" edge="1" parent="1" source="vmFFef-7g0_wXmtQKAH0-2" target="vmFFef-7g0_wXmtQKAH0-3">
          <mxGeometry relative="1" as="geometry" />
        </mxCell>
        <mxCell id="vmFFef-7g0_wXmtQKAH0-2" value="START&lt;br&gt;disp_avg_and_min_num_dentists(sector: str, start_year: int, end_year: int)" style="ellipse;whiteSpace=wrap;html=1;rounded=0;" vertex="1" parent="1">
          <mxGeometry x="124.56" width="259.63" height="70" as="geometry" />
        </mxCell>
        <mxCell id="vmFFef-7g0_wXmtQKAH0-7" value="" style="edgeStyle=orthogonalEdgeStyle;rounded=0;orthogonalLoop=1;jettySize=auto;html=1;" edge="1" parent="1" source="vmFFef-7g0_wXmtQKAH0-3" target="vmFFef-7g0_wXmtQKAH0-6">
          <mxGeometry relative="1" as="geometry" />
        </mxCell>
        <mxCell id="vmFFef-7g0_wXmtQKAH0-3" value="Initialise sum_dentists_yearly_by_sector to [], year_range, avg_num_dentists, min_sum_dentists, min_year to 0" style="whiteSpace=wrap;html=1;rounded=0;" vertex="1" parent="1">
          <mxGeometry x="90" y="130" width="330" height="50" as="geometry" />
        </mxCell>
        <mxCell id="vmFFef-7g0_wXmtQKAH0-4" value="import data" style="rounded=0;whiteSpace=wrap;html=1;glass=0;dashed=1;" vertex="1" parent="1">
          <mxGeometry x="314.37" y="80" width="115" height="40" as="geometry" />
        </mxCell>
        <mxCell id="vmFFef-7g0_wXmtQKAH0-5" value="" style="endArrow=none;dashed=1;html=1;rounded=0;strokeColor=default;entryX=0;entryY=0.5;entryDx=0;entryDy=0;" edge="1" parent="1" target="vmFFef-7g0_wXmtQKAH0-4">
          <mxGeometry width="50" height="50" relative="1" as="geometry">
            <mxPoint x="256.37" y="100" as="sourcePoint" />
            <mxPoint x="466.37" y="330" as="targetPoint" />
          </mxGeometry>
        </mxCell>
        <mxCell id="vmFFef-7g0_wXmtQKAH0-9" value="" style="edgeStyle=orthogonalEdgeStyle;rounded=0;orthogonalLoop=1;jettySize=auto;html=1;" edge="1" parent="1" source="vmFFef-7g0_wXmtQKAH0-6">
          <mxGeometry relative="1" as="geometry">
            <mxPoint x="254.4000000000001" y="310" as="targetPoint" />
          </mxGeometry>
        </mxCell>
        <mxCell id="vmFFef-7g0_wXmtQKAH0-6" value="sum_dentists_yearly_by_sector = data.get_sum_yearly_by_sector(sector, start_year, end_year)" style="whiteSpace=wrap;html=1;rounded=0;" vertex="1" parent="1">
          <mxGeometry x="90" y="220" width="330" height="50" as="geometry" />
        </mxCell>
        <mxCell id="vmFFef-7g0_wXmtQKAH0-12" value="" style="edgeStyle=orthogonalEdgeStyle;rounded=0;orthogonalLoop=1;jettySize=auto;html=1;" edge="1" parent="1" source="vmFFef-7g0_wXmtQKAH0-10" target="vmFFef-7g0_wXmtQKAH0-11">
          <mxGeometry relative="1" as="geometry" />
        </mxCell>
        <mxCell id="vmFFef-7g0_wXmtQKAH0-10" value="Display f&quot;For {sector} sector from {start_year} to {end_year}: \n&quot;" style="shape=parallelogram;perimeter=parallelogramPerimeter;whiteSpace=wrap;html=1;fixedSize=1;" vertex="1" parent="1">
          <mxGeometry x="136.88" y="310" width="235" height="60" as="geometry" />
        </mxCell>
        <mxCell id="vmFFef-7g0_wXmtQKAH0-14" value="" style="edgeStyle=orthogonalEdgeStyle;rounded=0;orthogonalLoop=1;jettySize=auto;html=1;" edge="1" parent="1" source="vmFFef-7g0_wXmtQKAH0-11" target="vmFFef-7g0_wXmtQKAH0-13">
          <mxGeometry relative="1" as="geometry" />
        </mxCell>
        <mxCell id="vmFFef-7g0_wXmtQKAH0-11" value="year_range = end_year - start_year + 1" style="rounded=0;whiteSpace=wrap;html=1;" vertex="1" parent="1">
          <mxGeometry x="147.5" y="410" width="215" height="50" as="geometry" />
        </mxCell>
        <mxCell id="vmFFef-7g0_wXmtQKAH0-16" value="" style="edgeStyle=orthogonalEdgeStyle;rounded=0;orthogonalLoop=1;jettySize=auto;html=1;" edge="1" parent="1" source="vmFFef-7g0_wXmtQKAH0-13" target="vmFFef-7g0_wXmtQKAH0-15">
          <mxGeometry relative="1" as="geometry" />
        </mxCell>
        <mxCell id="vmFFef-7g0_wXmtQKAH0-13" value="avg_num_dentists = sum(sum_dentists_yearly_by_sector) / year_range" style="rounded=0;whiteSpace=wrap;html=1;" vertex="1" parent="1">
          <mxGeometry x="58.75" y="500" width="392.5" height="50" as="geometry" />
        </mxCell>
        <mxCell id="vmFFef-7g0_wXmtQKAH0-18" value="" style="edgeStyle=orthogonalEdgeStyle;rounded=0;orthogonalLoop=1;jettySize=auto;html=1;" edge="1" parent="1" source="vmFFef-7g0_wXmtQKAH0-15" target="vmFFef-7g0_wXmtQKAH0-17">
          <mxGeometry relative="1" as="geometry" />
        </mxCell>
        <mxCell id="vmFFef-7g0_wXmtQKAH0-15" value="Display avg_num_dentists rounded to 2 decimal places" style="shape=parallelogram;perimeter=parallelogramPerimeter;whiteSpace=wrap;html=1;fixedSize=1;" vertex="1" parent="1">
          <mxGeometry x="133.75" y="590" width="242.5" height="60" as="geometry" />
        </mxCell>
        <mxCell id="vmFFef-7g0_wXmtQKAH0-20" value="" style="edgeStyle=orthogonalEdgeStyle;rounded=0;orthogonalLoop=1;jettySize=auto;html=1;" edge="1" parent="1" source="vmFFef-7g0_wXmtQKAH0-17" target="vmFFef-7g0_wXmtQKAH0-19">
          <mxGeometry relative="1" as="geometry" />
        </mxCell>
        <mxCell id="vmFFef-7g0_wXmtQKAH0-17" value="min_sum_dentists = min(sum_dentists_yearly_by_sector)" style="rounded=0;whiteSpace=wrap;html=1;" vertex="1" parent="1">
          <mxGeometry x="99.68" y="690" width="310.63" height="50" as="geometry" />
        </mxCell>
        <mxCell id="vmFFef-7g0_wXmtQKAH0-22" value="" style="edgeStyle=orthogonalEdgeStyle;rounded=0;orthogonalLoop=1;jettySize=auto;html=1;" edge="1" parent="1" source="vmFFef-7g0_wXmtQKAH0-19" target="vmFFef-7g0_wXmtQKAH0-21">
          <mxGeometry relative="1" as="geometry" />
        </mxCell>
        <mxCell id="vmFFef-7g0_wXmtQKAH0-19" value="min_year = start_year + sum_dentists_yearly_by_sector.index(min_sum_dentists)" style="rounded=0;whiteSpace=wrap;html=1;" vertex="1" parent="1">
          <mxGeometry x="34.53" y="780" width="440.94" height="50" as="geometry" />
        </mxCell>
        <mxCell id="vmFFef-7g0_wXmtQKAH0-24" value="" style="edgeStyle=orthogonalEdgeStyle;rounded=0;orthogonalLoop=1;jettySize=auto;html=1;" edge="1" parent="1" source="vmFFef-7g0_wXmtQKAH0-21" target="vmFFef-7g0_wXmtQKAH0-23">
          <mxGeometry relative="1" as="geometry" />
        </mxCell>
        <mxCell id="vmFFef-7g0_wXmtQKAH0-21" value="Display min_year and min_sum_dentists" style="shape=parallelogram;perimeter=parallelogramPerimeter;whiteSpace=wrap;html=1;fixedSize=1;" vertex="1" parent="1">
          <mxGeometry x="133.13" y="870" width="242.5" height="60" as="geometry" />
        </mxCell>
        <mxCell id="vmFFef-7g0_wXmtQKAH0-23" value="END&lt;br&gt;disp_avg_and_min_num_dentists(sector: str, start_year: int, end_year: int)" style="ellipse;whiteSpace=wrap;html=1;rounded=0;" vertex="1" parent="1">
          <mxGeometry x="125.18" y="970" width="259.63" height="70" as="geometry" />
        </mxCell>
      </root>
    </mxGraphModel>
  </diagram>
</mxfile>
